<?xml version="1.0" encoding="UTF-8"?><svg id="Layer_1" xmlns="http://www.w3.org/2000/svg" viewBox="0 0 96.15 32.54"><defs><style>.cls-1{fill:none;stroke:#231f20;stroke-linecap:round;stroke-linejoin:round;stroke-width:.5px;}</style></defs><g><rect class="cls-1" x=".25" y=".25" width="31.82" height="32.04" rx="1.28" ry="1.28"/><line class="cls-1" x1=".77" y1=".77" x2="7.3" y2="7.59"/><path class="cls-1" d="M10.26,10.26s-4.45-3.56-4.01-5.79,1.26-3.23,3.78-3.38c2.52-.15,15.28-.15,16.91,.15s4.67,.41,4.97,1.6"/><path class="cls-1" d="M6.26,4.93s1.19-.9,3.56-.6c2.37,.3,6.38,.89,10.09,.74,3.71-.15,9.35-1.34,10.68-.89s1.48,1.04,1.48,1.04"/><path class="cls-1" d="M7.59,8.05S3.59,5.96,1.81,7c-.98,.57-.78,4.78-.78,5.82s.19,15.17,.33,16.36-.15,2.3,1.04,2.9"/><path class="cls-1" d="M4.33,6.85c-.3,1.19,0,6.08,.3,7.12,.3,1.04,.3,11.57,0,12.91s-.41,5.3-.26,5.3"/><path class="cls-1" d="M13.53,6.41c-.87,.48-3.26,4.15-3.86,5.19-.59,1.04-3.71,6.08-2.08,7.86,1.63,1.78,5.19,3.26,7.42,2.23,2.23-1.04,2.97-2.67,4.45-5.64,1.48-2.97,2.37-3.41,1.34-5.49-1.04-2.08-5.64-5.04-7.27-4.15Z"/><path class="cls-1" d="M16.35,7c-1.19,.89-4.15,5.04-4.75,6.82-.59,1.78-2.97,4.45-3.26,4.9-.3,.45-.3,1.34-.3,1.34"/><path class="cls-1" d="M13.97,21.98s.45,6.08-.15,7.57c-.59,1.48-.89,2.67-1.34,2.67"/><path class="cls-1" d="M20.65,13.97s7.57,.15,9.05-.15c1.48-.3,2.23-1.63,2.23-1.63"/></g><g><rect class="cls-1" x="64.08" y=".25" width="31.82" height="32.04" rx="1.28" ry="1.28"/><line class="cls-1" x1="95.38" y1=".77" x2="88.85" y2="7.59"/><path class="cls-1" d="M85.88,10.26s4.45-3.56,4.01-5.79c-.45-2.23-1.26-3.23-3.78-3.38-2.52-.15-15.28-.15-16.91,.15-1.63,.3-4.67,.41-4.97,1.6"/><path class="cls-1" d="M89.81,5.27s-1.11-1.23-3.49-.94c-2.37,.3-6.38,.89-10.09,.74-3.71-.15-9.35-1.34-10.68-.89-1.34,.45-1.48,1.04-1.48,1.04"/><path class="cls-1" d="M88.11,8.04s4.45-2.08,6.23-1.04c.98,.57,.78,4.78,.78,5.82s-.19,15.17-.33,16.36c-.15,1.19,.15,2.3-1.04,2.9"/><path class="cls-1" d="M91.82,6.85c.3,1.19,0,6.08-.3,7.12-.3,1.04-.3,11.57,0,12.91,.3,1.34,.41,5.3,.26,5.3"/><path class="cls-1" d="M82.62,6.41c.87,.48,3.26,4.15,3.86,5.19,.59,1.04,3.71,6.08,2.08,7.86-1.63,1.78-5.19,3.26-7.42,2.23-2.23-1.04-2.97-2.67-4.45-5.64-1.48-2.97-2.37-3.41-1.34-5.49,1.04-2.08,5.64-5.04,7.27-4.15Z"/><path class="cls-1" d="M79.8,7c1.19,.89,4.15,5.04,4.75,6.82,.59,1.78,2.97,4.45,3.26,4.9,.3,.45,.3,1.34,.3,1.34"/><path class="cls-1" d="M82.17,21.98s-.45,6.08,.15,7.57c.59,1.48,.89,2.67,1.34,2.67"/><path class="cls-1" d="M75.5,13.97s-7.57,.15-9.05-.15c-1.48-.3-2.23-1.63-2.23-1.63"/></g><g><rect class="cls-1" x="32.2" y=".25" width="31.82" height="32.04" rx="1.28" ry="1.28"/><path class="cls-1" d="M32.26,3.19c.22-.45,2.3-1.56,4.45-1.63,2.15-.07,10.24-.3,11.13-.3s10.9-.3,12.68,.3c1.78,.59,3.34,1.34,3.41,1.93"/><path class="cls-1" d="M32.26,5.49c.45-.52,.67-.89,2.37-.67,1.71,.22,11.42,.74,13.43,.74s11.05-.45,12.68-.59c1.63-.15,2.82,.45,3.12,.74"/><path class="cls-1" d="M32.29,10.94c.15,.67,.22,2.11,5.3,2.63,3.5,.36,20.61,.39,22.51-.07,2.15-.52,3.75-.93,3.79-2.48"/></g></svg>