<?xml version="1.0" encoding="UTF-8"?><svg id="Layer_1" xmlns="http://www.w3.org/2000/svg" viewBox="0 0 68.79 69.27"><defs><style>.cls-1{fill:none;stroke:#231f20;stroke-linecap:round;stroke-linejoin:round;stroke-width:.5px;}</style></defs><rect class="cls-1" x=".25" y=".25" width="68.29" height="68.77" rx="2.75" ry="2.75"/><path class="cls-1" d="M.36,6.56c.48-.96,4.93-3.34,9.55-3.5,4.62-.16,21.97-.64,23.88-.64s23.4-.64,27.22,.64c3.82,1.27,7.16,2.87,7.32,4.14"/><path class="cls-1" d="M.36,11.5c.96-1.11,1.43-1.91,5.09-1.43,3.66,.48,24.51,1.59,28.81,1.59s23.72-.96,27.22-1.27c3.5-.32,6.05,.96,6.69,1.59"/><path class="cls-1" d="M.44,23.2c.32,1.43,.48,4.54,11.38,5.65,7.5,.77,44.22,.83,48.31-.16,4.62-1.11,8.05-2,8.14-5.32"/></svg>