<?xml version="1.0" encoding="UTF-8"?><svg id="Layer_1" xmlns="http://www.w3.org/2000/svg" viewBox="0 0 68.64 69.12"><defs><style>.cls-1{fill:none;stroke:#231f20;stroke-linecap:round;stroke-linejoin:round;stroke-width:.5px;}</style></defs><rect class="cls-1" x=".25" y=".25" width="68.14" height="68.62" rx="2.74" ry="2.74"/><line class="cls-1" x1="1.36" y1="1.36" x2="15.34" y2="15.97"/><path class="cls-1" d="M21.69,21.69s-9.53-7.62-8.58-12.39c.95-4.77,2.7-6.92,8.1-7.23,5.4-.32,32.72-.32,36.21,.32,3.49,.64,10.01,.88,10.64,3.42"/><path class="cls-1" d="M13.12,10.28s2.54-1.93,7.62-1.29c5.08,.64,13.66,1.91,21.6,1.59,7.94-.32,20.01-2.86,22.87-1.91s3.18,2.22,3.18,2.22"/><path class="cls-1" d="M15.97,16.95S7.4,12.48,3.59,14.7c-2.09,1.22-1.67,10.24-1.67,12.46s.4,32.48,.71,35.02c.32,2.54-.56,5.08,1.99,6.35"/><path class="cls-1" d="M8.99,14.39c-.64,2.54,0,13.02,.64,15.25,.64,2.22,.64,24.78,0,27.64-.64,2.86-.88,11.35-.56,11.35"/><path class="cls-1" d="M28.68,13.43c-1.87,1.02-6.99,8.89-8.26,11.12-1.27,2.22-7.94,13.02-4.45,16.84,3.49,3.81,11.12,6.99,15.88,4.77,4.77-2.22,6.35-5.72,9.53-12.07,3.18-6.35,5.08-7.31,2.86-11.75-2.22-4.45-12.07-10.8-15.57-8.89Z"/><path class="cls-1" d="M34.72,14.7c-2.54,1.91-8.89,10.8-10.17,14.61-1.27,3.81-6.35,9.53-6.99,10.48-.64,.95-.72,2.37-.72,2.37"/><path class="cls-1" d="M29.63,46.79s.95,13.02-.32,16.2c-1.27,3.18-1.91,5.72-2.86,5.72"/><path class="cls-1" d="M43.93,29.63s16.2,.32,19.38-.32c3.18-.64,4.77-3.49,4.77-3.49"/></svg>