<?xml version="1.0" encoding="UTF-8"?><svg id="Layer_1" xmlns="http://www.w3.org/2000/svg" viewBox="0 0 78.32 35.8"><defs><style>.cls-1{fill:#231f20;font-family:MyriadPro-Regular, 'Myriad Pro';font-size:12px;letter-spacing:.11em;}.cls-2{fill:none;stroke:#231f20;stroke-miterlimit:10;stroke-width:.5px;}</style></defs><g><rect class="cls-2" x=".25" y=".25" width="20.12" height="20.26" rx=".81" ry=".81"/><line class="cls-2" x1=".58" y1=".58" x2="4.71" y2="4.89"/><path class="cls-2" d="M6.58,6.58s-2.81-2.25-2.53-3.66S4.85,.88,6.44,.79s9.66-.09,10.69,.09c1.03,.19,2.96,.26,3.14,1.01"/><path class="cls-2" d="M4.05,3.21s.75-.57,2.25-.38c1.5,.19,4.03,.56,6.38,.47,2.35-.09,5.91-.84,6.75-.56s.94,.66,.94,.66"/><path class="cls-2" d="M4.89,5.18s-2.53-1.32-3.66-.66c-.62,.36-.49,3.02-.49,3.68s.12,9.59,.21,10.34c.09,.75-.16,1.5,.59,1.88"/><path class="cls-2" d="M2.83,4.42c-.19,.75,0,3.85,.19,4.5,.19,.66,.19,7.32,0,8.16-.19,.84-.26,3.35-.17,3.35"/><path class="cls-2" d="M8.65,4.14c-.55,.3-2.06,2.63-2.44,3.28-.38,.66-2.35,3.85-1.31,4.97,1.03,1.13,3.28,2.06,4.69,1.41s1.88-1.69,2.81-3.56c.94-1.88,1.5-2.16,.84-3.47s-3.56-3.19-4.6-2.63Z"/><path class="cls-2" d="M10.43,4.52c-.75,.56-2.63,3.19-3,4.32-.38,1.13-1.88,2.81-2.06,3.1s-.21,.7-.21,.7"/><path class="cls-2" d="M8.93,13.99s.28,3.85-.09,4.78c-.38,.94-.56,1.69-.84,1.69"/><path class="cls-2" d="M13.15,8.93s4.78,.09,5.72-.09c.94-.19,1.41-1.03,1.41-1.03"/></g><g><rect class="cls-2" x="57.95" y=".25" width="20.12" height="20.26" rx=".81" ry=".81"/><path class="cls-2" d="M57.98,2.11c.14-.28,1.45-.98,2.81-1.03,1.36-.05,6.47-.19,7.04-.19s6.89-.19,8.02,.19c1.13,.38,2.11,.84,2.16,1.22"/><path class="cls-2" d="M57.98,3.56c.28-.33,.42-.56,1.5-.42,1.08,.14,7.22,.47,8.49,.47s6.99-.28,8.02-.38c1.03-.09,1.78,.28,1.97,.47"/><path class="cls-2" d="M58.01,7.01c.09,.42,.14,1.34,3.35,1.67,2.21,.23,13.03,.24,14.24-.05,1.36-.33,2.37-.59,2.4-1.57"/></g><rect class="cls-2" x="29.12" y=".25" width="20.12" height="20.26" rx=".81" ry=".81"/><text class="cls-1" transform="translate(13.21 32.8)"><tspan x="0" y="0">CUSTOM</tspan></text></svg>