<?xml version="1.0" encoding="UTF-8"?><svg id="Layer_1" xmlns="http://www.w3.org/2000/svg" viewBox="0 0 97.17 25.02"><defs><style>.cls-1{fill:none;stroke:#231f20;stroke-miterlimit:10;stroke-width:.5px;}</style></defs><g><path class="cls-1" d="M24.34,23.79c0,.54-.44,.98-.97,.98H1.22c-.53,0-.97-.44-.97-.98V1.23C.25,.69,.69,.25,1.22,.25H23.37c.53,0,.97,.44,.97,.98V23.79Z"/><line class="cls-1" x1=".64" y1=".65" x2="5.58" y2="5.87"/><path class="cls-1" d="M7.83,7.91s-3.37-2.72-3.03-4.43c.34-1.7,.95-2.47,2.86-2.59,1.91-.11,11.57-.11,12.8,.11s3.54,.31,3.76,1.22"/><path class="cls-1" d="M4.8,3.83s.9-.69,2.7-.46c1.8,.23,4.83,.68,7.64,.57,2.81-.11,7.08-1.02,8.09-.68,1.01,.34,1.12,.79,1.12,.79"/><path class="cls-1" d="M5.81,6.22s-3.03-1.6-4.38-.8c-.74,.44-.59,3.66-.59,4.45s.14,11.61,.25,12.52c.11,.91-.11,1.76,.79,2.22"/><path class="cls-1" d="M3.34,5.3c-.22,.91,0,4.65,.22,5.45,.22,.79,.22,8.86,0,9.88-.22,1.02-.31,4.06-.2,4.06"/><path class="cls-1" d="M10.3,4.96c-.66,.36-2.47,3.18-2.92,3.97-.45,.79-2.81,4.65-1.57,6.02s3.93,2.5,5.62,1.7c1.68-.79,2.25-2.04,3.37-4.31,1.12-2.27,1.8-2.61,1.01-4.2-.79-1.59-4.27-3.86-5.5-3.18Z"/><path class="cls-1" d="M12.44,5.42c-.9,.68-3.14,3.86-3.59,5.22-.45,1.36-2.25,3.41-2.47,3.75s-.22,1.02-.22,1.02"/><path class="cls-1" d="M10.64,16.88s.34,4.65-.11,5.79c-.45,1.14-.67,2.04-1.01,2.04"/><path class="cls-1" d="M15.69,10.75s5.73,.11,6.85-.11c1.12-.23,1.68-1.25,1.68-1.25"/></g><g><path class="cls-1" d="M24.44,1.23c0-.54,.44-.98,.97-.98h22.15c.53,0,.97,.44,.97,.98V23.79c0,.54-.44,.98-.97,.98H25.41c-.53,0-.97-.44-.97-.98"/><path class="cls-1" d="M24.48,2.5c.17-.34,1.74-1.19,3.37-1.25,1.63-.06,7.75-.23,8.42-.23s8.26-.23,9.6,.23c1.35,.45,2.53,1.02,2.58,1.48"/><path class="cls-1" d="M24.48,4.26c.34-.4,.51-.68,1.8-.51,1.29,.17,8.65,.57,10.16,.57s8.37-.34,9.6-.45,2.13,.34,2.36,.57"/><path class="cls-1" d="M24.51,8.43c.11,.51,.17,1.62,4.02,2.02,2.65,.27,15.6,.3,17.04-.06,1.63-.4,2.84-.71,2.87-1.9"/></g><g><path class="cls-1" d="M72.83,23.79c0,.54,.44,.98,.97,.98h22.15c.53,0,.97-.44,.97-.98V1.23c0-.54-.44-.98-.97-.98h-22.15c-.53,0-.97,.44-.97,.98V23.79Z"/><line class="cls-1" x1="96.53" y1=".65" x2="91.59" y2="5.87"/><path class="cls-1" d="M89.34,7.91s3.37-2.72,3.03-4.43c-.34-1.7-.95-2.47-2.86-2.59-1.91-.11-11.57-.11-12.8,.11s-3.54,.31-3.76,1.22"/><path class="cls-1" d="M92.32,4.09s-.84-.95-2.64-.72c-1.8,.23-4.83,.68-7.64,.57-2.81-.11-7.08-1.02-8.09-.68-1.01,.34-1.12,.79-1.12,.79"/><path class="cls-1" d="M91.03,6.21s3.37-1.59,4.72-.79c.74,.44,.59,3.66,.59,4.45s-.14,11.61-.25,12.52c-.11,.91,.11,1.76-.79,2.22"/><path class="cls-1" d="M93.84,5.3c.22,.91,0,4.65-.22,5.45-.22,.79-.22,8.86,0,9.88,.22,1.02,.31,4.06,.2,4.06"/><path class="cls-1" d="M86.87,4.96c.66,.36,2.47,3.18,2.92,3.97,.45,.79,2.81,4.65,1.57,6.02s-3.93,2.5-5.62,1.7c-1.68-.79-2.25-2.04-3.37-4.31-1.12-2.27-1.8-2.61-1.01-4.2,.79-1.59,4.27-3.86,5.5-3.18Z"/><path class="cls-1" d="M84.74,5.42c.9,.68,3.14,3.86,3.59,5.22,.45,1.36,2.25,3.41,2.47,3.75s.22,1.02,.22,1.02"/><path class="cls-1" d="M86.53,16.88s-.34,4.65,.11,5.79c.45,1.14,.67,2.04,1.01,2.04"/><path class="cls-1" d="M81.48,10.75s-5.73,.11-6.85-.11c-1.12-.23-1.68-1.25-1.68-1.25"/></g><g><path class="cls-1" d="M72.73,23.79c0,.54-.44,.98-.97,.98h-22.15c-.53,0-.97-.44-.97-.98V1.23c0-.54,.44-.98,.97-.98h22.15c.53,0,.97,.44,.97,.98V23.79Z"/><path class="cls-1" d="M48.68,2.5c.17-.34,1.74-1.19,3.37-1.25,1.63-.06,7.75-.23,8.42-.23s8.26-.23,9.6,.23c1.35,.45,2.53,1.02,2.58,1.48"/><path class="cls-1" d="M48.68,4.26c.34-.4,.51-.68,1.8-.51,1.29,.17,8.65,.57,10.16,.57s8.37-.34,9.6-.45,2.13,.34,2.36,.57"/><path class="cls-1" d="M48.71,8.43c.11,.51,.17,1.62,4.02,2.02,2.65,.27,15.6,.3,17.04-.06,1.63-.4,2.84-.71,2.87-1.9"/></g></svg>