<?xml version="1.0" encoding="UTF-8"?><svg id="Layer_1" xmlns="http://www.w3.org/2000/svg" viewBox="0 0 94.14 48"><defs><style>.cls-1{fill:none;stroke:#231f20;stroke-linecap:round;stroke-linejoin:round;stroke-width:.5px;}</style></defs><g><path class="cls-1" d="M23.67,46.8c0,.52-.43,.95-.95,.95l-21.52-.11c-.52,0-.95-.43-.95-.95V24.87c0-.52,.43-.95,.95-.95l21.52,.11c.52,0,.95,.43,.95,.95v21.82Z"/><g><path class="cls-1" d="M23.82,1.2c0-.52,.42-.95,.94-.95h21.42c.52,0,.94,.43,.94,.95V23.02c0,.52-.42,.95-.94,.95H24.75c-.51,0-.93-.42-.94-.93"/><path class="cls-1" d="M23.85,2.43c.16-.33,1.68-1.15,3.26-1.21,1.58-.05,7.5-.22,8.15-.22s7.98-.22,9.29,.22c1.3,.44,2.44,.99,2.5,1.43"/><path class="cls-1" d="M23.85,4.13c.33-.38,.49-.66,1.74-.49,1.25,.16,8.36,.55,9.83,.55s8.09-.33,9.29-.44,2.06,.33,2.28,.55"/><path class="cls-1" d="M23.88,8.16c.11,.49,.16,1.56,3.88,1.95,2.56,.26,15.09,.29,16.48-.05,1.58-.38,2.75-.69,2.78-1.84"/></g><g><path class="cls-1" d="M23.72,23.02c0,.52-.42,.95-.94,.95H1.35c-.52,0-.94-.43-.94-.95V1.2C.41,.68,.84,.25,1.35,.25H22.78c.52,0,.94,.43,.94,.95V23.02Z"/><line class="cls-1" x1=".79" y1=".63" x2="5.57" y2="5.69"/><path class="cls-1" d="M7.75,7.66s-3.26-2.64-2.93-4.28c.33-1.65,.92-2.39,2.77-2.5,1.85-.11,11.19-.11,12.38,.11s3.42,.3,3.64,1.18"/><path class="cls-1" d="M4.81,3.72s.87-.67,2.61-.45c1.74,.22,4.67,.66,7.39,.55,2.72-.11,6.84-.99,7.82-.66,.98,.33,1.09,.77,1.09,.77"/><path class="cls-1" d="M5.79,6.02s-2.93-1.55-4.24-.78c-.71,.42-.57,3.54-.57,4.31s.14,11.23,.24,12.11c.11,.88-.11,1.7,.76,2.14"/><path class="cls-1" d="M3.4,5.14c-.22,.88,0,4.5,.22,5.27,.22,.77,.22,8.57,0,9.55s-.3,3.92-.19,3.92"/><path class="cls-1" d="M10.14,4.81c-.64,.35-2.39,3.07-2.82,3.84-.43,.77-2.72,4.5-1.52,5.82s3.8,2.42,5.43,1.65c1.63-.77,2.17-1.98,3.26-4.17s1.74-2.53,.98-4.06c-.76-1.54-4.13-3.73-5.32-3.07Z"/><path class="cls-1" d="M12.2,5.25c-.87,.66-3.04,3.73-3.48,5.05-.43,1.32-2.17,3.29-2.39,3.62-.22,.33-.22,.99-.22,.99"/><path class="cls-1" d="M10.46,16.34s.33,4.5-.11,5.6c-.43,1.1-.65,1.98-.98,1.98"/><path class="cls-1" d="M15.35,10.41s5.54,.11,6.63-.11,1.63-1.21,1.63-1.21"/></g><g><g><path class="cls-1" d="M47.18,1.2c0-.52,.42-.95,.94-.95h21.42c.52,0,.94,.43,.94,.95V23.02c0,.52-.42,.95-.94,.95h-21.42c-.51,0-.93-.42-.94-.93"/><path class="cls-1" d="M47.22,2.43c.16-.33,1.68-1.15,3.26-1.21,1.58-.05,7.5-.22,8.15-.22s7.98-.22,9.29,.22c1.3,.44,2.44,.99,2.5,1.43"/><path class="cls-1" d="M47.22,4.13c.33-.38,.49-.66,1.74-.49s8.36,.55,9.83,.55,8.09-.33,9.29-.44c1.2-.11,2.06,.33,2.28,.55"/><path class="cls-1" d="M47.24,8.16c.11,.49,.16,1.56,3.88,1.95,2.56,.26,15.09,.29,16.48-.05,1.58-.38,2.75-.69,2.78-1.84"/></g><g><path class="cls-1" d="M92.94,24.03c0,.52-22.04-.11-21.52-.11l21.52,.11"/><g><path class="cls-1" d="M70.58,22.7v.32c0,.52,.42,.95,.94,.95h21.42c.52,0,.94-.43,.94-.95V1.2c0-.52-.42-.95-.94-.95h-21.42c-.52,0-.94,.43-.94,.95v.64"/><line class="cls-1" x1="93.51" y1=".63" x2="88.73" y2="5.69"/><path class="cls-1" d="M86.55,7.66s3.26-2.64,2.93-4.28c-.33-1.65-.92-2.39-2.77-2.5-1.85-.11-11.19-.11-12.38,.11-1.19,.22-3.42,.3-3.64,1.18"/><path class="cls-1" d="M89.49,3.72s-.87-.67-2.61-.45c-1.74,.22-4.67,.66-7.39,.55-2.72-.11-6.84-.99-7.82-.66-.98,.33-1.09,.77-1.09,.77"/><path class="cls-1" d="M88.51,6.02s2.93-1.55,4.24-.78c.71,.42,.57,3.54,.57,4.31s-.14,11.23-.24,12.11c-.11,.88,.11,1.7-.76,2.14"/><path class="cls-1" d="M90.9,5.14c.22,.88,0,4.5-.22,5.27-.22,.77-.22,8.57,0,9.55s.3,3.92,.19,3.92"/><path class="cls-1" d="M84.16,4.81c.64,.35,2.39,3.07,2.82,3.84,.43,.77,2.72,4.5,1.52,5.82-1.19,1.32-3.8,2.42-5.43,1.65-1.63-.77-2.17-1.98-3.26-4.17-1.09-2.2-1.74-2.53-.98-4.06,.76-1.54,4.13-3.73,5.32-3.07Z"/><path class="cls-1" d="M82.1,5.25c.87,.66,3.04,3.73,3.48,5.05,.43,1.32,2.17,3.29,2.39,3.62,.22,.33,.22,.99,.22,.99"/><path class="cls-1" d="M83.84,16.34s-.33,4.5,.11,5.6c.43,1.1,.65,1.98,.98,1.98"/><path class="cls-1" d="M78.95,10.41s-5.54,.11-6.63-.11c-1.09-.22-1.63-1.21-1.63-1.21"/></g></g></g></g><line class="cls-1" x1="71.52" y1="23.97" x2="92.94" y2="24.03"/></svg>