<?xml version="1.0" encoding="UTF-8"?><svg id="Layer_1" xmlns="http://www.w3.org/2000/svg" viewBox="0 0 95.57 72.54"><defs><style>.cls-1{fill:none;stroke:#231f20;stroke-linecap:round;stroke-linejoin:round;stroke-width:.5px;}</style></defs><g><path class="cls-1" d="M47.74,23.4c0,.53-.43,.96-.95,.96H25c-.52,0-.95-.43-.95-.96V1.21c0-.53,.43-.96,.95-.96h21.78c.52,0,.95,.43,.95,.96V23.4Z"/><path class="cls-1" d="M24.08,2.46c.17-.33,1.71-1.17,3.31-1.23,1.6-.06,7.62-.22,8.28-.22s8.12-.22,9.44,.22c1.33,.45,2.49,1,2.54,1.45"/><path class="cls-1" d="M24.08,4.19c.33-.39,.5-.67,1.77-.5,1.27,.17,8.5,.56,10,.56s8.23-.33,9.44-.45c1.21-.11,2.1,.33,2.32,.56"/><path class="cls-1" d="M24.11,8.3c.11,.5,.17,1.59,3.95,1.98,2.6,.27,15.34,.29,16.76-.06,1.6-.39,2.79-.7,2.82-1.87"/></g><g><path class="cls-1" d="M71.53,23.4c0,.53-.43,.96-.95,.96h-21.78c-.52,0-.95-.43-.95-.96V1.21c0-.53,.43-.96,.95-.96h21.78c.52,0,.95,.43,.95,.96V23.4Z"/><path class="cls-1" d="M47.88,2.46c.17-.33,1.71-1.17,3.31-1.23,1.6-.06,7.62-.22,8.28-.22s8.12-.22,9.44,.22c1.33,.45,2.49,1,2.54,1.45"/><path class="cls-1" d="M47.88,4.19c.33-.39,.5-.67,1.77-.5,1.27,.17,8.5,.56,10,.56s8.23-.33,9.44-.45,2.1,.33,2.32,.56"/><path class="cls-1" d="M47.9,8.3c.11,.5,.17,1.59,3.95,1.98,2.6,.27,15.34,.29,16.76-.06,1.6-.39,2.79-.7,2.82-1.87"/></g><g><g><rect class="cls-1" x=".25" y="24.43" width="23.6" height="23.95" rx=".96" ry=".96"/><path class="cls-1" d="M2.46,48.34c-.33-.17-1.17-1.73-1.23-3.35-.06-1.62-.22-7.7-.22-8.37s-.22-8.21,.22-9.55c.45-1.34,1-2.51,1.45-2.57"/><path class="cls-1" d="M4.19,48.34c-.39-.33-.67-.5-.5-1.79,.17-1.28,.56-8.6,.56-10.1s-.33-8.32-.45-9.55c-.11-1.23,.33-2.12,.56-2.34"/><path class="cls-1" d="M8.3,48.31c.5-.11,1.59-.17,1.98-3.99,.27-2.63,.29-15.51-.06-16.94-.39-1.62-.7-2.82-1.87-2.85"/></g><g><path class="cls-1" d="M23.94,23.4c0,.53-.43,.96-.95,.96H1.2c-.52,0-.95-.43-.95-.96V1.21C.25,.68,.68,.25,1.2,.25H22.99c.52,0,.95,.43,.95,.96V23.4Z"/><line class="cls-1" x1=".64" y1=".64" x2="5.5" y2="5.78"/><path class="cls-1" d="M7.71,7.79s-3.31-2.68-2.98-4.35c.33-1.67,.94-2.43,2.82-2.54,1.88-.11,11.38-.11,12.59,.11,1.21,.22,3.48,.31,3.7,1.2"/><path class="cls-1" d="M4.72,3.78s.88-.68,2.65-.45c1.77,.22,4.75,.67,7.51,.56,2.76-.11,6.96-1,7.95-.67,.99,.33,1.1,.78,1.1,.78"/><path class="cls-1" d="M5.72,6.12s-2.98-1.57-4.31-.79c-.73,.43-.58,3.6-.58,4.38s.14,11.42,.25,12.31c.11,.89-.11,1.73,.77,2.18"/><path class="cls-1" d="M3.29,5.22c-.22,.89,0,4.58,.22,5.36,.22,.78,.22,8.71,0,9.71-.22,1-.3,3.99-.19,3.99"/><path class="cls-1" d="M10.14,4.88c-.65,.36-2.43,3.13-2.87,3.91-.44,.78-2.76,4.58-1.55,5.92,1.21,1.34,3.87,2.46,5.52,1.67,1.66-.78,2.21-2.01,3.31-4.24,1.1-2.23,1.77-2.57,.99-4.13-.77-1.56-4.2-3.8-5.41-3.13Z"/><path class="cls-1" d="M12.23,5.33c-.88,.67-3.09,3.8-3.53,5.14-.44,1.34-2.21,3.35-2.43,3.68-.22,.33-.22,1-.22,1"/><path class="cls-1" d="M10.47,16.61s.33,4.58-.11,5.69c-.44,1.12-.66,2.01-.99,2.01"/><path class="cls-1" d="M15.44,10.58s5.63,.11,6.74-.11c1.1-.22,1.66-1.23,1.66-1.23"/></g><g><path class="cls-1" d="M22.89,48.6c.53,0,.96,.43,.96,.95v21.78c0,.52-.43,.95-.96,.95l-21.56-.12c-.53,0-.96-.43-.96-.95v-21.78c0-.52,.43-.95,.96-.95l21.56,.12Z"/><line class="cls-1" x1=".75" y1="71.78" x2="5.89" y2="66.92"/><path class="cls-1" d="M7.9,64.71s-2.68,3.31-4.35,2.98-2.43-.94-2.54-2.82c-.11-1.88-.11-11.38,.11-12.59,.22-1.21,.31-3.48,1.2-3.7"/><path class="cls-1" d="M3.89,67.7s-.68-.88-.45-2.65c.22-1.77,.67-4.75,.56-7.51-.11-2.76-1-6.96-.67-7.95s.78-1.1,.78-1.1"/><path class="cls-1" d="M6.23,66.7s-1.57,2.98-.79,4.31c.43,.73,3.6,.58,4.38,.58s10.79-.02,11.69-.13c.89-.11,1.73,.11,2.18-.77"/><path class="cls-1" d="M5.33,69.13c.89,.22,4.58,0,5.36-.22s8.08-.1,9.09,.12,3.99,.3,3.99,.19"/><path class="cls-1" d="M5,62.28c.36,.65,3.13,2.43,3.91,2.87,.78,.44,4.58,2.76,5.92,1.55,1.34-1.22,2.46-3.87,1.67-5.52-.78-1.66-2.01-2.21-4.24-3.31-2.23-1.1-2.57-1.77-4.13-.99-1.56,.77-3.8,4.2-3.13,5.41Z"/><path class="cls-1" d="M5.44,60.19c.67,.88,3.8,3.09,5.14,3.53,1.34,.44,3.35,2.21,3.68,2.43,.33,.22,1,.22,1,.22"/><path class="cls-1" d="M16.72,61.95s3.95-.21,5.07,.23c1.12,.44,2.01,.66,2.01,.99"/><path class="cls-1" d="M10.69,56.98s.11-5.63-.11-6.74c-.22-1.1-1.23-1.66-1.23-1.66"/></g></g><g><g><rect class="cls-1" x="71.72" y="24.43" width="23.6" height="23.95" rx=".96" ry=".96"/><path class="cls-1" d="M93.1,48.34c.33-.17,1.17-1.73,1.23-3.35,.06-1.62,.22-7.7,.22-8.37s.22-8.21-.22-9.55c-.45-1.34-1-2.51-1.45-2.57"/><path class="cls-1" d="M91.37,48.34c.39-.33,.67-.5,.5-1.79-.17-1.28-.56-8.6-.56-10.1s.33-8.32,.45-9.55c.11-1.23-.33-2.12-.56-2.34"/><path class="cls-1" d="M87.27,48.31c-.5-.11-1.59-.17-1.98-3.99-.27-2.63-.29-15.51,.06-16.94,.39-1.62,.7-2.82,1.87-2.85"/></g><g><path class="cls-1" d="M71.62,23.4c0,.53,.43,.96,.95,.96h21.78c.52,0,.95-.43,.95-.96V1.21c0-.53-.43-.96-.95-.96h-21.78c-.52,0-.95,.43-.95,.96V23.4Z"/><line class="cls-1" x1="94.93" y1=".64" x2="90.07" y2="5.78"/><path class="cls-1" d="M87.86,7.79s3.31-2.68,2.98-4.35c-.33-1.67-.94-2.43-2.82-2.54-1.88-.11-11.38-.11-12.59,.11-1.21,.22-3.48,.31-3.7,1.2"/><path class="cls-1" d="M90.84,3.78s-.88-.68-2.65-.45c-1.77,.22-4.75,.67-7.51,.56-2.76-.11-6.96-1-7.95-.67-.99,.33-1.1,.78-1.1,.78"/><path class="cls-1" d="M89.85,6.12s2.98-1.57,4.31-.79c.73,.43,.58,3.6,.58,4.38s-.14,11.42-.25,12.31c-.11,.89,.11,1.73-.77,2.18"/><path class="cls-1" d="M92.28,5.22c.22,.89,0,4.58-.22,5.36-.22,.78-.22,8.71,0,9.71,.22,1,.3,3.99,.19,3.99"/><path class="cls-1" d="M85.43,4.88c.65,.36,2.43,3.13,2.87,3.91,.44,.78,2.76,4.58,1.55,5.92-1.21,1.34-3.87,2.46-5.52,1.67-1.66-.78-2.21-2.01-3.31-4.24s-1.77-2.57-.99-4.13c.77-1.56,4.2-3.8,5.41-3.13Z"/><path class="cls-1" d="M83.33,5.33c.88,.67,3.09,3.8,3.53,5.14,.44,1.34,2.21,3.35,2.43,3.68,.22,.33,.22,1,.22,1"/><path class="cls-1" d="M85.1,16.61s-.33,4.58,.11,5.69c.44,1.12,.66,2.01,.99,2.01"/><path class="cls-1" d="M80.13,10.58s-5.63,.11-6.74-.11c-1.1-.22-1.66-1.23-1.66-1.23"/></g><g><path class="cls-1" d="M72.68,48.6c-.53,0-.96,.43-.96,.95v21.78c0,.52,.43,.95,.96,.95l21.56-.12c.53,0,.96-.43,.96-.95v-21.78c0-.52-.43-.95-.96-.95l-21.56,.12Z"/><line class="cls-1" x1="94.81" y1="71.78" x2="89.68" y2="66.92"/><path class="cls-1" d="M87.67,64.71s2.68,3.31,4.35,2.98,2.43-.94,2.54-2.82c.11-1.88,.11-11.38-.11-12.59-.22-1.21-.31-3.48-1.2-3.7"/><path class="cls-1" d="M91.68,67.7s.68-.88,.45-2.65c-.22-1.77-.67-4.75-.56-7.51,.11-2.76,1-6.96,.67-7.95s-.78-1.1-.78-1.1"/><path class="cls-1" d="M89.33,66.7s1.57,2.98,.79,4.31c-.43,.73-3.6,.58-4.38,.58s-10.79-.02-11.69-.13c-.89-.11-1.73,.11-2.18-.77"/><path class="cls-1" d="M90.24,69.13c-.89,.22-4.58,0-5.36-.22s-8.08-.1-9.09,.12-3.99,.3-3.99,.19"/><path class="cls-1" d="M90.57,62.28c-.36,.65-3.13,2.43-3.91,2.87-.78,.44-4.58,2.76-5.92,1.55-1.34-1.22-2.46-3.87-1.67-5.52,.78-1.66,2.01-2.21,4.24-3.31,2.23-1.1,2.57-1.77,4.13-.99,1.56,.77,3.8,4.2,3.13,5.41Z"/><path class="cls-1" d="M90.12,60.19c-.67,.88-3.8,3.09-5.14,3.53-1.34,.44-3.35,2.21-3.68,2.43-.33,.22-1,.22-1,.22"/><path class="cls-1" d="M78.85,61.95s-3.95-.21-5.07,.23c-1.12,.44-2.01,.66-2.01,.99"/><path class="cls-1" d="M84.88,56.98s-.11-5.63,.11-6.74c.22-1.1,1.23-1.66,1.23-1.66"/></g></g></svg>